<svg width="230" height="124" viewBox="0 0 230 124" fill="none" xmlns="http://www.w3.org/2000/svg">
<ellipse cx="113.665" cy="60.3767" rx="100.585" ry="58.3498" fill="#AEEBDD"/>
<path d="M224.201 54.4138C225.744 83.3611 177.497 110.672 116.438 115.414C55.3792 120.156 4.63036 100.534 3.08743 71.5862C1.5445 42.6389 49.7917 15.3282 110.851 10.5862C171.91 5.84414 222.658 25.4664 224.201 54.4138Z" stroke="black" stroke-width="0.851822"/>
<path d="M228.692 60.8403C228.719 89.8475 179.14 113.429 117.955 113.511C56.7698 113.593 7.14782 90.145 7.12109 61.1378C7.09436 32.1306 56.6731 8.54905 117.858 8.4669C179.043 8.38475 228.665 31.8331 228.692 60.8403Z" stroke="black" stroke-width="0.851822"/>
<path d="M60.0043 30.3538C61.2132 30.8374 61.8177 31.5144 61.8177 32.3848C61.8177 33.2553 61.2132 34.3675 60.0043 35.7215C59.4723 35.6731 58.6986 35.649 57.6831 35.649C55.4586 35.649 53.3309 35.9633 51.2998 36.5919C49.2688 37.1722 47.1652 38.091 44.9891 39.3483C43.9736 39.977 43.1032 40.7749 42.3778 41.7421C41.8459 42.3224 41.5799 42.9994 41.5799 43.7731C41.5799 45.0788 42.3053 46.3361 43.756 47.545C45.1584 48.9957 47.4554 51.6312 50.647 55.4515L52.3154 57.1924C54.6849 59.7554 56.5467 61.9315 57.9007 63.7207C59.3031 65.51 60.4878 67.5652 61.455 69.8863C61.8419 70.9019 62.0353 71.8207 62.0353 72.6427C62.0353 74.7221 61.2374 76.6323 59.6416 78.3732C57.804 80.4042 55.6762 81.8791 53.2583 82.7979C50.8404 83.7651 48.1082 84.3695 45.0617 84.6113C44.6748 84.6597 44.2154 84.708 43.6835 84.7564C43.1515 84.8048 42.5471 84.8289 41.8701 84.8289C41.4348 84.8289 40.782 84.7806 39.9116 84.6839C38.8477 84.7322 37.7355 84.5388 36.5749 84.1036C35.4143 83.7167 34.3504 83.1364 33.3832 82.3627C31.5456 80.8152 30.6268 79.0985 30.6268 77.2126C30.6268 75.6168 31.3039 73.9968 32.6579 72.3526C33.3349 72.4493 33.7217 72.6669 33.8185 73.0054C33.9635 73.2956 33.9877 73.6341 33.891 74.0209C33.8426 74.4078 33.8185 74.7221 33.8185 74.9639C33.8185 75.109 33.8668 75.3266 33.9635 75.6168C35.8495 76.4872 38.0981 76.9224 40.7095 76.9224C43.6109 76.9224 46.3432 76.4388 48.9061 75.4717C51.5174 74.4562 53.1133 73.223 53.6936 71.7723C54.0321 70.8051 53.21 69.1126 51.2273 66.6947C49.2446 64.2285 47.0202 61.8348 44.5539 59.5136C42.2327 57.4342 40.1292 55.379 38.2432 53.348C37.1793 52.1874 36.3331 50.8575 35.7044 49.3584C35.1241 47.811 34.834 46.2152 34.834 44.571C34.834 42.3465 35.3901 40.243 36.5023 38.2603C37.6629 36.2776 39.3796 34.6576 41.6524 33.4003C46.0047 30.9341 50.4536 29.7009 54.9992 29.7009C55.6279 29.7009 56.5225 29.7493 57.6831 29.846C58.747 29.9427 59.5207 30.112 60.0043 30.3538ZM69.3762 93.6059C69.3762 80.5009 69.3521 70.6843 69.3037 64.1559C69.3037 62.8986 69.4971 61.9315 69.884 61.2545C70.3192 60.5291 71.1171 59.9488 72.2777 59.5136C74.2604 58.7882 76.775 57.7485 79.8215 56.3945L83.5935 54.7262C84.2221 54.4844 85.0926 54.4118 86.2048 54.5085C89.0579 54.702 91.1131 55.4273 92.3704 56.6846C93.6277 57.8936 94.2564 59.6345 94.2564 61.9073C94.2564 63.1646 94.0146 64.8088 93.531 66.8398C93.0474 68.8225 91.911 71.4096 90.1218 74.6012C88.526 77.5027 86.2773 78.9535 83.3759 78.9535C82.3603 78.9535 81.3448 78.7842 80.3293 78.4457C79.6523 78.2523 79.2171 78.1555 79.0236 78.1555C78.0081 78.1555 77.5729 79.0018 77.718 80.6943C77.8631 84.2728 77.9356 87.7788 77.9356 91.2122C77.9839 92.0343 78.0081 93.219 78.0081 94.7665C78.0081 95.6853 77.9839 96.3865 77.9356 96.8701L77.8631 98.9011C77.8631 100.158 77.4762 101.174 76.7025 101.948C75.9287 102.721 74.9132 103.108 73.6559 103.108C72.5437 103.108 71.5765 102.697 70.7544 101.875C69.9324 101.053 69.5213 100.086 69.5213 98.9736V93.6059H69.3762ZM77.4278 65.6792C77.186 65.8726 76.9926 66.2111 76.8475 66.6947C76.7508 67.1299 76.6783 67.5893 76.6299 68.0729C76.5816 68.5081 76.509 68.9192 76.4123 69.3061C76.4607 69.3544 76.509 69.3786 76.5574 69.3786C76.6541 69.3786 76.7266 69.4028 76.775 69.4511C76.775 69.7413 76.7992 70.249 76.8475 70.9744C76.8959 71.6998 76.9684 72.3526 77.0651 72.9329C77.2102 73.6099 77.452 74.1418 77.7905 74.5287C78.129 74.8672 78.5159 75.0365 78.9511 75.0365C79.5314 75.0365 80.1117 74.7705 80.692 74.2386C83.8836 71.5305 85.7212 67.5893 86.2048 62.4151C86.2048 62.1733 85.9872 61.8106 85.552 61.327C85.1167 60.8434 84.8749 60.6258 84.8266 60.6742C83.5693 61.4479 82.2636 62.27 80.9096 63.1404C79.5556 63.9625 78.395 64.8088 77.4278 65.6792ZM114.736 70.6843C114.253 70.9744 113.551 71.1195 112.633 71.1195C112.294 71.1195 111.883 71.0953 111.399 71.0469C110.916 70.9986 110.505 70.9986 110.166 71.0469C110.553 72.6427 111.472 73.9484 112.923 74.9639C114.373 75.9311 115.993 76.4147 117.783 76.4147C119.33 76.4147 120.708 76.0762 121.917 75.3991C123.707 74.4803 125.254 73.3923 126.56 72.135C127.478 71.2162 128.349 70.7568 129.171 70.7568C129.703 70.7568 130.162 71.0228 130.549 71.5547C130.936 72.1833 131.129 72.9571 131.129 73.8759C131.129 74.843 130.936 75.5926 130.549 76.1245C129.292 78.0588 127.648 79.3887 125.617 80.114C123.634 80.8394 121.313 81.2021 118.653 81.2021C115.897 81.2021 113.237 80.5976 110.674 79.3887C108.111 78.1797 105.911 76.5356 104.073 74.4562C102.284 72.3284 101.099 69.9831 100.519 67.4201C100.132 65.921 99.9386 64.4461 99.9386 62.9953C99.9386 60.7225 100.567 58.8849 101.825 57.4826C103.13 56.0802 105.21 54.7503 108.063 53.493C110.674 52.3808 113.092 51.8247 115.316 51.8247C116.912 51.8247 118.46 52.0665 119.959 52.55C124.601 54.0008 126.922 55.9835 126.922 58.4981C126.922 60.0939 125.979 62.0282 124.093 64.301C123.175 65.3649 122.087 66.3079 120.829 67.1299C119.572 67.952 118.339 68.7016 117.13 69.3786C115.969 70.0072 115.171 70.4425 114.736 70.6843ZM117.783 57.2649C117.734 57.0232 117.541 56.8297 117.202 56.6846C116.912 56.4912 116.743 56.3703 116.695 56.322C115.389 56.2252 114.059 56.6121 112.705 57.4826C111.351 58.3046 110.215 59.3685 109.296 60.6742C108.425 61.9798 107.99 63.2371 107.99 64.4461L108.063 65.0264C108.111 65.2198 108.353 65.4616 108.788 65.7518C109.272 66.0419 109.562 66.1386 109.659 66.0419C113.092 63.4789 115.679 61.4237 117.42 59.8763C117.71 59.5861 117.855 59.0542 117.855 58.2805C117.855 57.7969 117.831 57.4584 117.783 57.2649ZM147.071 54.6536C147.071 54.9438 147.023 55.3306 146.926 55.8142C146.829 56.2494 146.805 56.5396 146.854 56.6846C150.19 55.9593 153.019 55.5966 155.34 55.5966C158.967 55.5966 161.699 57.3375 163.537 60.8192C165.036 63.7691 165.786 67.0332 165.786 70.6117C165.786 71.5305 165.689 72.8604 165.495 74.6012C165.35 75.7618 164.891 76.7048 164.117 77.4302C163.344 78.1072 162.425 78.4457 161.361 78.4457C160.249 78.4457 159.451 78.2523 158.967 77.8654C158.532 77.4302 158.266 76.9466 158.169 76.4147C158.121 75.8827 158.097 75.0365 158.097 73.8759L158.024 72.3526C157.927 69.4511 157.734 66.9365 157.444 64.8088C157.299 63.9383 156.96 63.3339 156.428 62.9953C155.945 62.6085 155.292 62.4151 154.47 62.4151C153.696 62.4151 152.777 62.536 151.713 62.7777C150.069 63.213 148.957 63.5515 148.377 63.7933C147.845 64.035 147.047 64.5428 145.983 65.3165C145.645 65.5583 145.403 66.0419 145.258 66.7673C145.113 67.4926 145.04 67.9037 145.04 68.0004C144.411 71.0953 143.734 74.7947 143.009 79.0985C142.961 79.292 142.864 79.7514 142.719 80.4767C142.574 81.2021 142.284 81.7099 141.848 82C141.462 82.3385 140.881 82.4594 140.108 82.3627C137.061 81.9758 135.514 80.6943 135.465 78.5182C135.417 75.7135 135.634 72.401 136.118 68.5807C136.457 65.8243 136.771 63.5998 137.061 61.9073C137.158 61.1336 137.279 60.1906 137.424 59.0784C137.617 57.9661 137.786 56.6846 137.931 55.2339C138.077 54.1217 138.222 53.2996 138.367 52.7677C138.512 52.2357 138.85 51.8005 139.382 51.462C139.914 51.0751 140.736 50.8817 141.848 50.8817C143.251 50.8817 144.411 51.196 145.33 51.8247C146.249 52.4533 146.829 53.348 147.071 54.5085V54.6536ZM204.854 76.1971C204.129 76.3421 203.428 76.4147 202.75 76.4147C201.155 76.4147 199.656 76.0036 198.253 75.1815C196.851 74.3595 195.4 73.1505 193.901 71.5547L193.176 73.4407C192.499 75.375 192.16 76.3179 192.16 76.2696C191.628 78.1072 190.564 79.5821 188.969 80.6943C187.373 81.7582 185.608 82.2901 183.673 82.2901C182.319 82.2901 181.014 82.0242 179.756 81.4922C178.499 80.9119 177.387 80.0899 176.42 79.026C174.098 76.4147 172.938 73.6341 172.938 70.6843C172.938 67.4443 174.316 64.0834 177.072 60.6016C178.281 59.1025 179.66 58.087 181.207 57.5551C182.803 57.0232 184.665 56.7572 186.792 56.7572C187.808 56.7572 188.533 56.5396 188.969 56.1044C189.404 55.6691 189.573 54.8954 189.476 53.7832C188.993 48.9474 188.751 44.5226 188.751 40.5089C188.751 39.3967 188.944 37.8251 189.331 35.794C189.525 34.8269 189.984 34.0532 190.709 33.4729C191.435 32.8442 192.305 32.5299 193.321 32.5299C193.659 32.5299 193.901 32.5541 194.046 32.6024C196.367 33.0376 197.528 34.44 197.528 36.8096L197.673 41.3794C197.866 50.4707 198.156 57.2649 198.543 61.7622C198.64 63.0679 198.93 64.3252 199.414 65.5341C199.946 66.7431 200.719 68.3873 201.735 70.4666C201.977 70.9502 202.654 71.4338 203.766 71.9174C203.911 72.0141 204.153 72.135 204.491 72.2801C204.878 72.4251 205.168 72.5944 205.362 72.7878C205.797 73.078 206.208 73.489 206.595 74.0209C206.982 74.5045 207.248 74.843 207.393 75.0365C207.054 75.1815 206.619 75.3991 206.087 75.6893C205.604 75.9311 205.193 76.1003 204.854 76.1971ZM184.906 61.9798C183.697 62.7536 182.706 63.9867 181.932 65.6792C181.159 67.3234 180.772 69.0401 180.772 70.8293C180.772 73.3923 181.618 75.4233 183.311 76.9224C184.858 74.3111 186.043 71.9174 186.865 69.7413C187.687 67.5168 188.098 65.244 188.098 62.9228C188.098 61.9073 187.614 61.3995 186.647 61.3995C186.115 61.3995 185.535 61.593 184.906 61.9798Z" fill="#202020"/>
</svg>
